<svg viewBox="0 0 16 12" fill="none" xmlns="http://www.w3.org/2000/svg">
<g clip-path="url(#clip0_57_166)">
<path fill-rule="evenodd" clip-rule="evenodd" d="M15.8044 0.861249C15.8665 0.923172 15.9157 0.996734 15.9493 1.07772C15.9829 1.15871 16.0002 1.24553 16.0002 1.33321C16.0002 1.4209 15.9829 1.50772 15.9493 1.58871C15.9157 1.66969 15.8665 1.74326 15.8044 1.80518L6.47176 11.1378C6.40984 11.1999 6.33627 11.2491 6.25529 11.2828C6.1743 11.3164 6.08748 11.3337 5.99979 11.3337C5.91211 11.3337 5.82529 11.3164 5.7443 11.2828C5.66331 11.2491 5.58975 11.1999 5.52783 11.1378L0.86151 6.4715C0.736337 6.34632 0.666016 6.17655 0.666016 5.99953C0.666016 5.82251 0.736337 5.65274 0.86151 5.52757C0.986683 5.40239 1.15645 5.33207 1.33347 5.33207C1.5105 5.33207 1.68027 5.40239 1.80544 5.52757L5.99979 9.72325L14.8605 0.861249C14.9224 0.799169 14.996 0.749916 15.0769 0.71631C15.1579 0.682704 15.2447 0.665405 15.3324 0.665405C15.4201 0.665405 15.5069 0.682704 15.5879 0.71631C15.6689 0.749916 15.7425 0.799169 15.8044 0.861249Z" fill="white"/>
</g>
<defs>
<clipPath id="clip0_57_166">
<rect width="16" height="11.9991" fill="white"/>
</clipPath>
</defs>
</svg>
